Coordinates
version=1
nRows=24
nColumns=22
inDegrees=yes

Units are S.I. units (second, meters, Newtons, ...)
If the header above contains a line with 'inDegrees', this indicates whether rotational values are in degrees (yes) or radians (no).

endheader
time	pelvis_tilt	pelvis_list	pelvis_rotation	pelvis_tx	pelvis_ty	pelvis_tz	hip_flexion_r	hip_adduction_r	hip_rotation_r	knee_angle_r	ankle_angle_r	subtalar_angle_r	hip_flexion_l	hip_adduction_l	hip_rotation_l	knee_angle_l	ankle_angle_l	subtalar_angle_l	lumbar_extension	lumbar_bending	lumbar_rotation
      1.30000000	     -3.73179313	     -4.67424148	     -3.65004499	     -1.14765451	      0.95377452	     -0.23181394	      9.31759433	      7.32709609	      4.01019240	    -18.01101654	     12.23942574	     -1.89779292	     11.94499334	     -4.23388706	     -4.70208291	    -25.26348570	     15.58165945	     -4.42733067	     -5.10703630	      3.66728816	      0.38787718
      1.31000000	     -3.76836056	     -4.67097633	     -3.68341005	     -1.14688568	      0.95366707	     -0.23226918	      9.33653521	      7.29613396	      4.04494990	    -18.06554370	     12.29703938	     -1.83898001	     11.90827123	     -4.19659713	     -4.71471738	    -25.23305449	     15.63263949	     -4.46242675	     -5.09011922	      3.66968794	      0.40583285
      1.32000000	     -3.79941432	     -4.65611134	     -3.71390640	     -1.14610683	      0.95355968	     -0.23276396	      9.36619103	      7.25302632	      4.08748393	    -18.14994098	     12.36927855	     -1.77792220	     11.86648459	     -4.14499638	     -4.74102640	    -25.20206894	     15.67063842	     -4.50731724	     -5.08235458	      3.65791063	      0.42459402
      1.33000000	     -3.82632500	     -4.63913518	     -3.73621005	     -1.14530690	      0.95345176	     -0.23330460	      9.40780108	      7.20653493	      4.12869683	    -18.26396851	     12.44012913	     -1.72239310	     11.81772290	     -4.08482955	     -4.75067769	    -25.16720324	     15.69947014	     -4.55790890	     -5.08222296	      3.64794733	      0.42453407
      1.34000000	     -3.85703148	     -4.60706884	     -3.75249312	     -1.14445314	      0.95332519	     -0.23388384	      9.47026800	      7.14285096	      4.16728395	    -18.41220870	     12.53868805	     -1.63042662	     11.76624354	     -4.00527652	     -4.76335252	    -25.12184133	     15.69774787	     -4.64371606	     -5.07062449	      3.62122414	      0.40075059
      1.35000000	     -3.86649178	     -4.58388408	     -3.75261157	     -1.14360808	      0.95319849	     -0.23452355	      9.54056510	      7.08902949	      4.21368927	    -18.61361995	     12.61537452	     -1.59328761	     11.70179866	     -3.92078559	     -4.71648432	    -25.09534125	     15.74038951	     -4.70150481	     -5.09585519	      3.60576375	      0.38125894
      1.36000000	     -3.88136943	     -4.52539486	     -3.73606135	     -1.14267802	      0.95304098	     -0.23522276	      9.64741676	      6.99578945	      4.25810423	    -18.87647175	     12.75282267	     -1.51984320	     11.62565186	     -3.79520791	     -4.68483822	    -25.03412177	     15.73401537	     -4.79925566	     -5.10236346	      3.55254526	      0.31229708
      1.37000000	     -3.87917212	     -4.45941742	     -3.70680792	     -1.14173950	      0.95287304	     -0.23600162	      9.78189776	      6.89361926	      4.31768302	    -19.21957453	     12.89432132	     -1.39004408	     11.54305419	     -3.64856119	     -4.61406655	    -24.99471411	     15.70087693	     -4.94598652	     -5.13672626	      3.49721886	      0.22899165
      1.38000000	     -3.85259784	     -4.38485883	     -3.66374061	     -1.14071027	      0.95270732	     -0.23683148	      9.93040025	      6.78377018	      4.38714573	    -19.64166602	     13.04596645	     -1.34107208	     11.41052233	     -3.48473463	     -4.53034444	    -24.91986232	     15.75141531	     -5.01956423	     -5.19239192	      3.43182077	      0.13221646
      1.39000000	     -3.81077893	     -4.28138074	     -3.60462205	     -1.13966826	      0.95252275	     -0.23770811	     10.13438704	      6.64621591	      4.46456974	    -20.19005926	     13.22619304	     -1.26283333	     11.26717118	     -3.28626316	     -4.44353735	    -24.84818964	     15.76118351	     -5.10179854	     -5.26856476	      3.33048525	      0.01158158
      1.40000000	     -3.76618315	     -4.15865517	     -3.54295683	     -1.13864766	      0.95229667	     -0.23860608	     10.41855211	      6.49548132	      4.55191989	    -20.88193141	     13.42233828	     -1.10541822	     11.13499874	     -3.06725382	     -4.35380083	    -24.79868222	     15.74327128	     -5.20519779	     -5.35579138	      3.20586414	     -0.11929942
      1.41000000	     -3.71043744	     -4.01800524	     -3.48690851	     -1.13763064	      0.95203576	     -0.23950837	     10.78690455	      6.33106558	      4.61991424	    -21.73901107	     13.61547240	     -0.97400923	     10.98246162	     -2.83244954	     -4.28873104	    -24.73382145	     15.78148198	     -5.26678625	     -5.46182317	      3.06021283	     -0.25241488
      1.42000000	     -3.66018042	     -3.85762424	     -3.44255993	     -1.13664873	      0.95171850	     -0.24037024	     11.26852571	      6.15649197	      4.65825421	    -22.77987487	     13.80026077	     -0.81602988	     10.84170277	     -2.58476931	     -4.24695460	    -24.67628262	     15.82669061	     -5.30918678	     -5.57169974	      2.88477607	     -0.38634201
      1.43000000	     -3.60907763	     -3.68127857	     -3.40970218	     -1.13569201	      0.95135550	     -0.24118216	     11.86439728	      5.97334312	      4.64890315	    -24.01645886	     13.95954995	     -0.63918032	     10.70469943	     -2.32854848	     -4.23138814	    -24.62695839	     15.88830723	     -5.33303319	     -5.69168928	      2.68423285	     -0.52071316
      1.44000000	     -3.59605506	     -3.51577884	     -3.38775557	     -1.13478745	      0.95089386	     -0.24194101	     12.62435817	      5.80641745	      4.55583431	    -25.45724502	     14.04881344	     -0.30325865	     10.63171426	     -2.09720289	     -4.24357049	    -24.61696863	     15.98133801	     -5.35577309	     -5.78209007	      2.49685326	     -0.66011005
      1.45000000	     -3.54452709	     -3.33811827	     -3.38630715	     -1.13386745	      0.95046984	     -0.24261487	     13.44774268	      5.62808675	      4.38980871	    -27.07286571	     14.10181258	     -0.05743319	     10.50719183	     -1.85594800	     -4.27022047	    -24.59575111	     16.05816589	     -5.34727202	     -5.92696364	      2.28597997	     -0.78222575
      1.46000000	     -3.49369634	     -3.16359891	     -3.39821011	     -1.13296718	      0.95002752	     -0.24318595	     14.38089431	      5.44979133	      4.12637770	    -28.85875198	     14.06865582	      0.23479321	     10.40004577	     -1.62824019	     -4.31381834	    -24.60661224	     16.15753500	     -5.33884851	     -6.08377186	      2.06934570	     -0.91805405
      1.47000000	     -3.42508751	     -3.00220905	     -3.42661705	     -1.13203874	      0.94961740	     -0.24367533	     15.38460603	      5.27007998	      3.75126639	    -30.77564953	     13.95091554	      0.54614002	     10.27385273	     -1.41842576	     -4.36804103	    -24.62512120	     16.25652809	     -5.33038542	     -6.27059503	      1.86453564	     -1.04661046
      1.48000000	     -3.33484231	     -2.86023790	     -3.46314451	     -1.13105124	      0.94926023	     -0.24408587	     16.43184704	      5.08897439	      3.27011578	    -32.77472392	     13.73923197	      0.88218081	     10.12483007	     -1.23175385	     -4.42609793	    -24.65404535	     16.36028869	     -5.32989354	     -6.48835548	      1.67867691	     -1.18201590
      1.49000000	     -3.21562926	     -2.74191592	     -3.50216726	     -1.12995762	      0.94898847	     -0.24443590	     17.48710597	      4.90110095	      2.68909232	    -34.79755882	     13.44723865	      1.22262913	      9.93209660	     -1.06829844	     -4.47355851	    -24.67411936	     16.46044735	     -5.33896953	     -6.73990379	      1.51708994	     -1.33108045
      1.50000000	     -3.06989794	     -2.66094186	     -3.52823364	     -1.12872209	      0.94881494	     -0.24475256	     18.51558229	      4.71755028	      2.02688767	    -36.76555475	     13.09099309	      1.58415886	      9.69871193	     -0.94174014	     -4.50562436	    -24.68914765	     16.56626987	     -5.36522543	     -7.01853182	      1.39996861	     -1.50523183
      1.51000000	     -2.89220605	     -2.62435736	     -3.53862205	     -1.12730874	      0.94876975	     -0.24503464	     19.47987949	      4.54532646	      1.30227464	    -38.60762088	     12.69944816	      1.96194306	      9.40340127	     -0.85721798	     -4.50572685	    -24.67734149	     16.67719103	     -5.40898555	     -7.32722849	      1.33435965	     -1.69735741
      1.52000000	     -2.65496569	     -2.61461595	     -3.51931420	     -1.12566992	      0.94890931	     -0.24531455	     20.31900947	      4.35630592	      0.50114011	    -40.25372208	     12.34323766	      2.10463327	      9.00063073	     -0.79324595	     -4.48067995	    -24.60872969	     16.75331149	     -5.42445488	     -7.69047026	      1.29964889	     -1.91780949
      1.53000000	     -2.44176037	     -2.65172932	     -3.47048893	     -1.12386535	      0.94908518	     -0.24558397	     21.11518972	      4.17402896	     -0.38470649	    -41.66354715	     12.06442907	      2.26800670	      8.61305141	     -0.78246138	     -4.43376627	    -24.54043564	     16.83515027	     -5.45034590	     -8.01548956	      1.32637092	     -2.18346952
